<?xml version="1.0" encoding="UTF-8" standalone="no"?>
<!DOCTYPE svg PUBLIC "-//W3C//DTD SVG 1.1//EN" "http://www.w3.org/Graphics/SVG/1.1/DTD/svg11.dtd">
<svg width="100%" height="100%" viewBox="0 0 500 500" version="1.1" xmlns="http://www.w3.org/2000/svg" xmlns:xlink="http://www.w3.org/1999/xlink" xml:space="preserve" xmlns:serif="http://www.serif.com/" style="fill-rule:evenodd;clip-rule:evenodd;stroke-linecap:round;stroke-linejoin:round;stroke-miterlimit:1.5;">
    <g transform="matrix(1.07758,0,0,1.07758,-24.1831,-15.6001)">
        <path d="M361.937,138.004C361.158,136.679 360.944,135.097 361.343,133.612C361.743,132.128 362.723,130.866 364.062,130.112C370.847,126.291 382.779,119.57 389.463,115.805C392.18,114.276 395.621,115.2 397.205,117.885C409.366,138.494 456.816,218.909 468.831,239.273C470.385,241.907 469.595,245.297 467.036,246.973C460.65,251.154 449.099,258.717 442.479,263.052C441.168,263.91 439.564,264.194 438.039,263.837C436.514,263.481 435.201,262.515 434.407,261.166C421.867,239.854 374.314,159.038 361.937,138.004Z" style="fill:rgb(69,123,157);stroke:rgb(69,123,157);stroke-width:0.93px;"/>
    </g>
    <g transform="matrix(1.07758,0,0,1.07758,-14.3927,-17.2454)">
        <path d="M103.766,116.994C104.588,115.586 105.94,114.568 107.52,114.166C109.099,113.765 110.774,114.015 112.167,114.86C119.502,119.308 132.68,127.299 139.946,131.704C142.8,133.435 143.724,137.145 142.016,140.013C129.241,161.454 80.567,243.147 67.457,265.151C66.605,266.581 65.204,267.599 63.581,267.968C61.958,268.336 60.255,268.023 58.87,267.102C51.855,262.437 39.616,254.298 32.886,249.822C30.206,248.04 29.38,244.478 31.002,241.698C43.277,220.661 91.064,138.764 103.766,116.994Z" style="fill:rgb(69,123,157);stroke:rgb(69,123,157);stroke-width:0.93px;"/>
    </g>
    <g transform="matrix(1.07758,0,0,1.07758,-14.3927,-17.2454)">
        <path d="M76.484,250L97.53,264.133C97.53,264.133 122.739,315.772 167.059,339.762C211.38,363.751 280.503,407.842 301.646,362.125" style="fill:none;stroke:rgb(69,123,157);stroke-width:18.49px;"/>
    </g>
    <g transform="matrix(1.07758,0,0,1.07758,-14.3927,-17.2454)">
        <path d="M250,337.092C250,337.092 324.01,391.984 334.582,339.938" style="fill:none;stroke:rgb(69,123,157);stroke-width:18.49px;"/>
    </g>
    <g transform="matrix(1.07758,0,0,1.07758,-14.3927,-17.2454)">
        <path d="M268.711,302.531C268.711,302.531 362.231,372.874 362.231,310.663" style="fill:none;stroke:rgb(69,123,157);stroke-width:18.49px;"/>
    </g>
    <g transform="matrix(1.07758,0,0,1.07758,-14.3927,-17.2454)">
        <path d="M292.291,265.514C314.993,282.721 337.695,294.805 360.397,303.335C366.296,305.501 372.904,303.198 376.18,297.836C382.83,286.983 390.654,268.91 376.722,259.622" style="fill:none;stroke:rgb(69,123,157);stroke-width:18.49px;"/>
    </g>
    <g transform="matrix(1.07758,0,0,1.07758,-14.3927,-17.2454)">
        <path d="M130.058,146.8L156.081,164.284C156.081,164.284 193.896,172.823 219.918,173.636" style="fill:rgb(69,123,157);stroke:rgb(69,123,157);stroke-width:18.49px;"/>
    </g>
    <g transform="matrix(1.07758,0,0,1.07758,-14.3927,-17.2454)">
        <path d="M347.657,161.778C350.033,161.007 352.626,161.996 353.886,164.154C362.975,179.593 396.227,236.529 405.665,252.688C407.104,255.152 406.498,258.3 404.248,260.053C399.407,263.827 391.164,270.251 385.783,274.445C382.684,276.86 378.348,276.89 375.216,274.518C352.73,257.636 265.052,193.305 232.546,191.675C229.188,191.515 225.959,192.98 223.867,195.612C215.739,205.561 189.728,234.155 166.981,223.276C166.029,222.822 165.315,221.985 165.015,220.975C164.714,219.964 164.855,218.874 165.403,217.973C172.885,205.67 199.593,162.656 206.907,160.218C215.446,157.372 272.371,145.58 315.471,160.218C315.471,160.218 334.646,165.508 347.657,161.778Z" style="fill:rgb(69,123,157);stroke:rgb(69,123,157);stroke-width:0.93px;"/>
    </g>
</svg>
