<?xml version="1.0" encoding="UTF-8" standalone="no"?>
<!DOCTYPE svg PUBLIC "-//W3C//DTD SVG 1.1//EN" "http://www.w3.org/Graphics/SVG/1.1/DTD/svg11.dtd">
<svg width="100%" height="100%" viewBox="0 0 500 500" version="1.1" xmlns="http://www.w3.org/2000/svg" xmlns:xlink="http://www.w3.org/1999/xlink" xml:space="preserve" xmlns:serif="http://www.serif.com/" style="fill-rule:evenodd;clip-rule:evenodd;stroke-linecap:round;stroke-linejoin:round;stroke-miterlimit:1.5;">
    <path d="M102.208,135.642C102.208,135.642 66.814,183.043 108.866,243.806C109.179,244.259 109.505,244.702 109.843,245.136C115.106,251.511 151,291.864 209.578,276.048" style="fill:none;stroke:rgb(69,123,157);stroke-width:14.69px;"/>
    <g transform="matrix(1,0,0,1,-29.8602,-47.014)">
        <circle cx="213.231" cy="230.146" r="133.895" style="fill:none;stroke:rgb(69,123,157);stroke-width:25.15px;"/>
    </g>
    <g transform="matrix(1,0,0,1,-9.17624,-9.79679)">
        <path d="M311.229,303.068C311.229,303.068 285.387,318.682 305.88,344.054L427.852,467.653C427.852,467.653 445.743,481.64 464.284,465.376C464.284,465.376 483.151,446.835 466.561,426.342C466.561,426.342 370.873,330.148 348.107,307.262C343.126,302.255 336.628,299.039 329.627,298.115C323.589,297.316 316.648,298.004 311.229,303.068Z" style="fill:rgb(69,123,157);stroke:rgb(69,123,157);stroke-width:8.4px;"/>
    </g>
</svg>
